# xmcd CD database file
#
# Track frame offsets:
#	150
#	12581
#	31400
#	45133
#	56296
#	71630
#	85068
#	98427
#	113365
#	126095
#	137711
#	151292
#	167749
#	181196
#	195084
#	216513
#	228650
#	247268
#	265286
#	279670
#	294022
#
# Disc length: 4109 seconds
#
# Revision: 0
# Processed by: cddbd v1.5.1PL0 Copyright (c) Steve Scherf et al.
# Submitted via: CDex 1.51
#
DISCID=19100b15
DTITLE=Varios - Forrozao Sertanejo 2004
DYEAR=2004
DGENRE=Country
TTITLE0=É Mentira Dela - Teodoro e Sampaio
TTITLE1=Por Amor - Calcinha Preta
TTITLE2=Apaziguar - Bruno e Marrone
TTITLE3=Cheiro de Flor - Di Paulo e Paulino
TTITLE4=Rodo sem Borracha - Juliano Cesar
TTITLE5=Treme, Treme - Trio Chapahall's
TTITLE6=Resposta da Rapariga - Avioes do Forro
TTITLE7=Escorpiao - Leonardo
TTITLE8=Pra La que eu Vou - Leonardo
TTITLE9=Comendo Poeira - Adalberto e Adriano
TTITLE10=O Grito da Galera - Rio Negro e Solimoes
TTITLE11=Gostoso - Romes e Carlinhos
TTITLE12=Mulher Chorona - Teodoro e Sampaio
TTITLE13=Ta Chovendo Amor - Ze Henrique e Gabriel
TTITLE14=Enche Bailao - Arriba Saia
TTITLE15=Mulher Boa - Dois a Um
TTITLE16=Lambanca - Trio Chapahall's
TTITLE17=Casar pra que? - Juliano Cesar
TTITLE18=Esse Amor Nao Tem Mim - Muleca Sem Vergonha
TTITLE19=Machucado de Paixao - Pedro Paulo e Paulo Vitor
TTITLE20=Aconteceu Comigo (Ah Ah Ah) - Derley e Dorivan
EXTD=YEAR: 2004
EXTT0=
EXTT1=
EXTT2=
EXTT3=
EXTT4=
EXTT5=
EXTT6=
EXTT7=
EXTT8=
EXTT9=
EXTT10=
EXTT11=
EXTT12=
EXTT13=
EXTT14=
EXTT15=
EXTT16=
EXTT17=
EXTT18=
EXTT19=
EXTT20=
PLAYORDER=
